HIERARCHY
ROOT Hips
{
	OFFSET 0.00000 0.00000 0.00000
	CHANNELS 6 Xposition Yposition Zposition Zrotation Yrotation Xrotation 
	JOINT LHipJoint
	{
		OFFSET 0 0 0
		CHANNELS 3 Zrotation Yrotation Xrotation
		JOINT LeftUpLeg
		{
			OFFSET 1.75344 -1.53157 0.77399
			CHANNELS 3 Zrotation Yrotation Xrotation
			JOINT LeftLeg
			{
				OFFSET 2.25415 -6.19323 0.00000
				CHANNELS 3 Zrotation Yrotation Xrotation
				JOINT LeftFoot
				{
					OFFSET 2.30342 -6.32861 0.00000
					CHANNELS 3 Zrotation Yrotation Xrotation
					JOINT LeftToeBase
					{
						OFFSET 0.10958 -0.30108 1.49206
						CHANNELS 3 Zrotation Yrotation Xrotation
						End Site
						{
							OFFSET 0.00000 -0.00000 0.77783
						}
					}
				}
			}
		}
	}
	JOINT RHipJoint
	{
		OFFSET 0 0 0
		CHANNELS 3 Zrotation Yrotation Xrotation
		JOINT RightUpLeg
		{
			OFFSET -1.81912 -1.53156 0.77399
			CHANNELS 3 Zrotation Yrotation Xrotation
			JOINT RightLeg
			{
				OFFSET -2.22882 -6.12365 0.00000
				CHANNELS 3 Zrotation Yrotation Xrotation
				JOINT RightFoot
				{
					OFFSET -2.21943 -6.09785 0.00000
					CHANNELS 3 Zrotation Yrotation Xrotation
					JOINT RightToeBase
					{
						OFFSET -0.18931 -0.52012 1.59379
						CHANNELS 3 Zrotation Yrotation Xrotation
						End Site
						{
							OFFSET -0.00000 -0.00000 0.84686
						}
					}
				}
			}
		}
	}
	JOINT LowerBack
	{
		OFFSET 0 0 0
		CHANNELS 3 Zrotation Yrotation Xrotation
		JOINT Spine
		{
			OFFSET -0.00200 1.66634 -0.14248
			CHANNELS 3 Zrotation Yrotation Xrotation
			JOINT Spine1
			{
				OFFSET -0.00875 1.64542 0.09514
				CHANNELS 3 Zrotation Yrotation Xrotation
				JOINT Neck
				{
					OFFSET 0 0 0
					CHANNELS 3 Zrotation Yrotation Xrotation
					JOINT Neck1
					{
						OFFSET 0.02257 1.59605 0.00839
						CHANNELS 3 Zrotation Yrotation Xrotation
						JOINT Head
						{
							OFFSET -0.10214 1.57530 -0.23335
							CHANNELS 3 Zrotation Yrotation Xrotation
							End Site
							{
								OFFSET -0.03588 1.60717 -0.08062
							}
						}
					}
				}
				JOINT LeftShoulder
				{
					OFFSET 0 0 0
					CHANNELS 3 Zrotation Yrotation Xrotation
					JOINT LeftArm
					{
						OFFSET 2.54983 1.10186 0.40078
						CHANNELS 3 Zrotation Yrotation Xrotation
						JOINT LeftForeArm
						{
							OFFSET 4.28840 -0.00000 0.00000
							CHANNELS 3 Zrotation Yrotation Xrotation
							JOINT LeftHand
							{
								OFFSET 3.06552 -0.00000 -0.00000
								CHANNELS 3 Zrotation Yrotation Xrotation
								JOINT LeftFingerBase
								{
									OFFSET 0 0 0
									CHANNELS 3 Zrotation Yrotation Xrotation
									JOINT LeftHandIndex1
									{
										OFFSET 0.75304 -0.00000 0.00000
										CHANNELS 3 Zrotation Yrotation Xrotation
										End Site
										{
											OFFSET 0.60712 -0.00000 0.00000
										}
									}
								}
								JOINT LThumb
								{
									OFFSET 0 0 0
									CHANNELS 3 Zrotation Yrotation Xrotation
									End Site
									{
										OFFSET 0.61639 -0.00000 0.61639
									}
								}
							}
						}
					}
				}
				JOINT RightShoulder
				{
					OFFSET 0 0 0
					CHANNELS 3 Zrotation Yrotation Xrotation
					JOINT RightArm
					{
						OFFSET -2.60909 1.35448 0.21802
						CHANNELS 3 Zrotation Yrotation Xrotation
						JOINT RightForeArm
						{
							OFFSET -4.52172 -0.00000 -0.00000
							CHANNELS 3 Zrotation Yrotation Xrotation
							JOINT RightHand
							{
								OFFSET -2.89140 -0.00000 0.00000
								CHANNELS 3 Zrotation Yrotation Xrotation
								JOINT RightFingerBase
								{
									OFFSET 0 0 0
									CHANNELS 3 Zrotation Yrotation Xrotation
									JOINT RightHandIndex1
									{
										OFFSET -0.68054 -0.00000 0.00000
										CHANNELS 3 Zrotation Yrotation Xrotation
										End Site
										{
											OFFSET -0.54867 -0.00000 0.00000
										}
									}
								}
								JOINT RThumb
								{
									OFFSET 0 0 0
									CHANNELS 3 Zrotation Yrotation Xrotation
									End Site
									{
										OFFSET -0.55705 -0.00000 0.55705
									}
								}
							}
						}
					}
				}
			}
		}
	}
}
MOTION
Frames: 8
Frame Time: 0.25
0.00 0.00 0.00 0 0 0 0 0 0 -21 0 0 0 0 0 0 0 0 0 0 0 0 0 0 21 0 0 0 0 0 0 0 0 0 0 0 0 0 0 0 0 0 0 0 0 0 0 -16 0 0 21 0 0 11 0 0 0 -8 0 0 0 0 0 0 0 0 0 0 0 0 0 0 0 0 0 0 0 0 8 0 0 0 0 0 0 0 0 0 0 0 0 0 0 0 0 0
0.00 0.00 0.00 -178.7920 6.3598 179.2950 0.0000 0.0000 0.0000 -20.6916 -13.1011 -10.1548 3.7974 11.8858 35.3293 2.0189 3.1624 -28.1263 3.5057 -11.4719 -33.8883 0.0000 0.0000 0.0000 25.5659 11.1335 -8.1888 -2.9494 -10.6127 30.9847 -0.6487 -12.4605 -24.3666 -0.0710 1.7196 -4.7315 1.0096 2.0559 10.7955 -0.0297 2.9164 -3.4681 -1.1547 1.3483 -9.7355 -8.9637 -4.2966 -5.0882 7.8009 -6.3689 12.5118 3.4902 -3.2467 5.1153 -0.0000 0.0000 0.0000 -89.0333 12.4648 24.4885 19.6400 -30.2062 -5.3491 -0.0000 -0.0000 13.3825 6.5547 -32.7422 -3.5562 -7.1250 0.0000 -0.0000 -14.2126 -2.0534 15.1809 -0.0000 0.0000 0.0000 84.5987 -13.4005 48.0486 -29.1084 40.1168 -10.8305 0.0000 0.0000 11.9285 -7.8561 -44.2503 5.4996 7.1250 -0.0000 -0.0000 44.7886 -69.7229 -28.3753
0.00 0.00 0.00 -178.5020 3.5618 183.0560 0.0000 0.0000 0.0000 -17.6193 -15.5864 -24.9667 7.7235 15.9121 51.5606 3.0505 -1.5370 -32.7060 4.1112 -12.3069 -36.8265 0.0000 0.0000 0.0000 24.3416 13.4838 -22.8869 -6.8885 -15.2373 48.4513 -1.8426 -10.9852 -31.5906 -0.0002 0.0996 -0.2736 1.6859 1.3792 12.7205 0.1855 2.1369 -2.0599 -1.1917 0.9467 -9.3161 -7.0327 -2.6899 -5.3976 6.2340 -3.4941 5.6060 3.1879 -1.7016 3.0733 -0.0000 -0.0000 0.0000 -89.3245 6.5378 32.3139 23.0751 -34.1708 -7.1804 -0.0000 -0.0000 5.9568 10.4850 -34.5331 -5.9891 -7.1250 0.0000 -0.0000 -12.1806 -4.3097 13.3574 -0.0000 -0.0000 0.0000 86.0750 -5.4481 42.5287 -18.3758 28.6357 -4.7280 0.0000 0.0000 22.9194 -13.2278 -48.9858 10.0576 7.1250 -0.0000 -0.0000 51.9851 -74.5234 -38.5361
0.00 0.00 0.00 -178.2450 -0.6940 183.1960 0.0000 0.0000 0.0000 -21.5189 -11.4525 -1.6717 2.8760 10.4916 30.5837 0.1717 2.8703 -9.4304 3.8113 -11.9050 -35.3967 0.0000 0.0000 0.0000 28.1778 5.9600 0.1387 -2.1468 -9.1655 26.3143 1.4013 -20.4652 -9.6284 -0.0404 -1.2975 3.5677 0.0044 0.5416 8.5602 0.6898 0.7054 -4.6610 0.6213 0.3314 -9.7946 -6.0259 -2.1903 -6.9839 3.7864 -2.6937 7.7894 2.2060 -1.3695 3.9882 -0.0000 -0.0000 0.0000 -90.8674 12.8471 21.0120 13.5606 -22.1030 -2.6605 -0.0000 -0.0000 41.9905 0.8341 -29.9091 -0.4159 -7.1250 0.0000 -0.0000 -17.3230 1.2189 17.7893 -0.0000 -0.0000 0.0000 86.6480 -13.3507 39.2090 -14.2995 23.1613 -2.9449 0.0000 0.0000 37.7016 -7.8244 -61.9350 6.9138 7.1250 -0.0000 -0.0000 85.4379 74.5429 101.2638
0.00 0.00 0.00 -178.6860 -0.2416 183.3130 0.0000 0.0000 0.0000 -22.9172 -14.1760 1.6895 1.7645 8.3572 23.8045 -0.0996 15.2091 9.5540 0.6314 -5.0844 -14.1494 0.0000 0.0000 0.0000 27.2788 5.6478 -0.7719 -1.6392 -8.0702 22.9276 2.4644 -31.8315 7.1323 -1.3155 -7.2647 20.5019 0.8718 0.5029 5.8522 0.2639 0.6407 -4.9875 -0.2859 0.2098 -8.5335 -5.8645 -1.7863 -6.3020 3.8714 -2.2931 9.1046 2.0137 -1.1835 3.8586 -0.0000 -0.0000 0.0000 -89.9870 11.4779 19.4461 13.5450 -22.0805 -2.6546 -0.0000 -0.0000 42.7207 -5.8113 -26.3892 2.5900 -7.1250 0.0000 -0.0000 -21.1546 4.8945 20.7739 -0.0000 -0.0000 0.0000 86.2506 -12.7655 38.8832 -14.5699 23.5436 -3.0521 0.0000 0.0000 34.4777 -3.5978 -62.0018 3.1776 7.1250 -0.0000 -0.0000 83.3337 73.1868 100.4929
0.00 0.00 0.00 -180.1430 0.0248 184.1120 0.0000 0.0000 0.0000 -25.0428 -19.3650 0.7707 0.9899 6.3324 17.7521 -3.5571 34.9734 3.7384 4.5683 12.8805 38.9226 0.0000 0.0000 0.0000 25.1275 12.3063 -2.7686 -0.7022 -5.3560 14.9268 7.1751 -42.5308 -8.2408 -7.2919 -15.5728 49.9699 0.0921 0.5860 7.0023 -0.0568 0.9092 -4.8529 -0.2537 0.4831 -9.0697 -6.1136 -2.0492 -6.5735 4.6300 -2.6440 8.5477 2.2664 -1.3125 3.7649 0.0000 0.0000 0.0000 -87.7790 7.4845 22.1983 12.7319 -20.8931 -2.3568 -0.0000 -0.0000 44.0915 -6.6761 -24.3278 2.7606 -7.1250 0.0000 -0.0000 -21.7811 6.8468 20.6191 0.0000 0.0000 0.0000 83.8235 -9.8107 41.4126 -12.9398 21.1989 -2.4315 0.0000 0.0000 40.8683 6.5272 -62.2031 -5.7794 7.1250 -0.0000 -0.0000 80.3757 69.9895 100.7713
0.00 0.00 0.00 -180.1760 -0.0005 184.0620 0.0000 0.0000 0.0000 -24.8953 -23.8680 -0.3708 0.9937 6.3442 17.7864 -4.6239 35.4399 -7.4270 6.7785 15.1425 48.0316 0.0000 0.0000 0.0000 24.7023 22.2998 -0.0423 -0.3793 -3.9552 10.9506 3.8430 -36.7511 -34.6638 -10.0806 -17.4549 59.7573 0.1661 0.9399 8.2040 0.0812 1.2238 -4.3121 -0.1985 0.5586 -9.1885 -6.5946 -2.4628 -6.7852 4.7884 -3.0977 7.6873 2.3674 -1.5244 3.5749 -0.0000 0.0000 0.0000 -87.3509 6.0152 22.7291 12.7135 -20.8660 -2.3503 -0.0000 -0.0000 43.0882 -7.5168 -24.2667 3.1041 -7.1250 0.0000 -0.0000 -22.2624 6.9170 21.1246 -0.0000 0.0000 0.0000 83.3175 -8.9830 41.2989 -13.1915 21.5672 -2.5233 0.0000 0.0000 40.2595 3.7425 -61.6836 -3.2957 7.1250 -0.0000 -0.0000 99.1160 -70.8322 -79.5999
0.00 0.00 0.00 -180.0650 -0.3691 184.3690 0.0000 0.0000 0.0000 -24.0892 -26.5368 -2.3417 1.0829 6.6141 18.5771 -3.9913 32.7669 -15.1625 7.9810 16.1052 52.4941 0.0000 0.0000 0.0000 24.4417 30.9126 1.9306 -0.2748 -3.3717 9.3153 -4.1919 -22.3981 -50.5105 -11.5162 -18.1786 64.4468 0.7083 0.9677 8.5739 0.0089 1.3384 -4.0530 -0.6037 0.5861 -9.1088 -6.8976 -2.7155 -6.7141 4.9099 -3.3749 6.5987 2.7109 -1.6694 3.6167 0.0000 -0.0000 0.0000 -86.9655 5.3647 23.1540 12.8678 -21.0933 -2.4055 -0.0000 -0.0000 42.2324 -8.7359 -23.7058 3.5352 -7.1250 0.0000 -0.0000 -22.9982 7.4507 21.6981 0.0000 -0.0000 0.0000 83.6673 -8.3197 40.6353 -13.2793 21.6951 -2.5556 0.0000 0.0000 39.7271 3.4682 -61.5994 -3.0517 7.1250 -0.0000 -0.0000 98.8620 -70.9269 -79.4213
